<?xml version="1.0" encoding="UTF-8" standalone="no"?>
<!-- Created with Inkscape (http://www.inkscape.org/) -->

<svg
   xmlns:dc="http://purl.org/dc/elements/1.1/"
   xmlns:cc="http://creativecommons.org/ns#"
   xmlns:rdf="http://www.w3.org/1999/02/22-rdf-syntax-ns#"
   xmlns:svg="http://www.w3.org/2000/svg"
   xmlns="http://www.w3.org/2000/svg"
   xmlns:sodipodi="http://sodipodi.sourceforge.net/DTD/sodipodi-0.dtd"
   xmlns:inkscape="http://www.inkscape.org/namespaces/inkscape"
   id="svg2"
   version="1.1"
   inkscape:version="0.91 r13725"
   xml:space="preserve"
   width="1000"
   height="1000"
   viewBox="0 0 1000 1000"
   sodipodi:docname="logo.svg"><metadata
     id="metadata8"><rdf:RDF><cc:Work
         rdf:about=""><dc:format>image/svg+xml</dc:format><dc:type
           rdf:resource="http://purl.org/dc/dcmitype/StillImage" /><dc:title></dc:title></cc:Work></rdf:RDF></metadata><defs
     id="defs6" /><sodipodi:namedview
     pagecolor="#ffffff"
     bordercolor="#666666"
     borderopacity="1"
     objecttolerance="10"
     gridtolerance="10"
     guidetolerance="10"
     inkscape:pageopacity="0"
     inkscape:pageshadow="2"
     inkscape:window-width="1311"
     inkscape:window-height="716"
     id="namedview4"
     showgrid="false"
     showguides="true"
     inkscape:guide-bbox="true"
     inkscape:zoom="0.53974135"
     inkscape:cx="493.93846"
     inkscape:cy="450.5225"
     inkscape:window-x="55"
     inkscape:window-y="24"
     inkscape:window-maximized="0"
     inkscape:current-layer="g6612"><sodipodi:guide
       position="477.9661,650"
       orientation="-0.70710678,0.70710678"
       id="guide6486" /></sodipodi:namedview><g
     id="g10"
     inkscape:groupmode="layer"
     inkscape:label="ink_ext_XXXXXX"
     transform="matrix(1.25,0,0,-1.25,0,1000)"><path
       inkscape:connector-curvature="0"
       id="path184"
       style="fill:#ffffff;fill-opacity:1;fill-rule:nonzero;stroke:none"
       d="m 67.7371,131.385 c 1.0324,0 1.8692,-0.836 1.8692,-1.868 0,-1.033 -0.8368,-1.871 -1.8692,-1.871 -1.0324,0 -1.8695,0.838 -1.8695,1.871 0,1.032 0.8371,1.868 1.8695,1.868" /><path
       inkscape:connector-curvature="0"
       id="path186"
       style="fill:#ffffff;fill-opacity:1;fill-rule:nonzero;stroke:none"
       d="m 67.7371,141.566 c 1.0324,0 1.8692,-0.837 1.8692,-1.868 0,-1.032 -0.8368,-1.87 -1.8692,-1.87 -1.0324,0 -1.8695,0.838 -1.8695,1.87 0,1.031 0.8371,1.868 1.8695,1.868" /><path
       inkscape:connector-curvature="0"
       id="path188"
       style="fill:#ffffff;fill-opacity:1;fill-rule:nonzero;stroke:none"
       d="m 67.7371,151.748 c 1.0324,0 1.8692,-0.837 1.8692,-1.868 0,-1.032 -0.8368,-1.87 -1.8692,-1.87 -1.0324,0 -1.8695,0.838 -1.8695,1.87 0,1.031 0.8371,1.868 1.8695,1.868" /><path
       inkscape:connector-curvature="0"
       id="path190"
       style="fill:#ffffff;fill-opacity:1;fill-rule:nonzero;stroke:none"
       d="m 67.7371,161.93 c 1.0324,0 1.8692,-0.837 1.8692,-1.868 0,-1.033 -0.8368,-1.871 -1.8692,-1.871 -1.0324,0 -1.8695,0.838 -1.8695,1.871 0,1.031 0.8371,1.868 1.8695,1.868" /><path
       inkscape:connector-curvature="0"
       id="path192"
       style="fill:#ffffff;fill-opacity:1;fill-rule:nonzero;stroke:none"
       d="m 67.7371,172.111 c 1.0324,0 1.8692,-0.837 1.8692,-1.868 0,-1.032 -0.8368,-1.87 -1.8692,-1.87 -1.0324,0 -1.8695,0.838 -1.8695,1.87 0,1.031 0.8371,1.868 1.8695,1.868" /><path
       inkscape:connector-curvature="0"
       id="path194"
       style="fill:#ffffff;fill-opacity:1;fill-rule:nonzero;stroke:none"
       d="m 67.7371,182.293 c 1.0324,0 1.8692,-0.837 1.8692,-1.869 0,-1.031 -0.8368,-1.869 -1.8692,-1.869 -1.0324,0 -1.8695,0.838 -1.8695,1.869 0,1.032 0.8371,1.869 1.8695,1.869" /><path
       inkscape:connector-curvature="0"
       id="path196"
       style="fill:#ffffff;fill-opacity:1;fill-rule:nonzero;stroke:none"
       d="m 58.4043,136.476 c 1.032,0 1.8691,-0.836 1.8691,-1.869 0,-1.032 -0.8371,-1.87 -1.8691,-1.87 -1.0328,0 -1.8695,0.838 -1.8695,1.87 0,1.033 0.8367,1.869 1.8695,1.869" /><path
       inkscape:connector-curvature="0"
       id="path198"
       style="fill:#ffffff;fill-opacity:1;fill-rule:nonzero;stroke:none"
       d="m 58.4043,146.657 c 1.032,0 1.8691,-0.837 1.8691,-1.868 0,-1.032 -0.8371,-1.87 -1.8691,-1.87 -1.0328,0 -1.8695,0.838 -1.8695,1.87 0,1.031 0.8367,1.868 1.8695,1.868" /><path
       inkscape:connector-curvature="0"
       id="path200"
       style="fill:#ffffff;fill-opacity:1;fill-rule:nonzero;stroke:none"
       d="m 58.4043,156.839 c 1.032,0 1.8691,-0.837 1.8691,-1.868 0,-1.033 -0.8371,-1.87 -1.8691,-1.87 -1.0328,0 -1.8695,0.837 -1.8695,1.87 0,1.031 0.8367,1.868 1.8695,1.868" /><path
       inkscape:connector-curvature="0"
       id="path202"
       style="fill:#ffffff;fill-opacity:1;fill-rule:nonzero;stroke:none"
       d="m 58.4043,167.021 c 1.032,0 1.8691,-0.837 1.8691,-1.869 0,-1.032 -0.8371,-1.87 -1.8691,-1.87 -1.0328,0 -1.8695,0.838 -1.8695,1.87 0,1.032 0.8367,1.869 1.8695,1.869" /><path
       inkscape:connector-curvature="0"
       id="path204"
       style="fill:#ffffff;fill-opacity:1;fill-rule:nonzero;stroke:none"
       d="m 58.4043,177.202 c 1.032,0 1.8691,-0.837 1.8691,-1.868 0,-1.033 -0.8371,-1.87 -1.8691,-1.87 -1.0328,0 -1.8695,0.837 -1.8695,1.87 0,1.031 0.8367,1.868 1.8695,1.868" /><path
       inkscape:connector-curvature="0"
       id="path206"
       style="fill:#ffffff;fill-opacity:1;fill-rule:nonzero;stroke:none"
       d="m 77.0703,136.476 c 1.032,0 1.8692,-0.836 1.8692,-1.869 0,-1.032 -0.8372,-1.87 -1.8692,-1.87 -1.0328,0 -1.8691,0.838 -1.8691,1.87 0,1.033 0.8363,1.869 1.8691,1.869" /><path
       inkscape:connector-curvature="0"
       id="path208"
       style="fill:#ffffff;fill-opacity:1;fill-rule:nonzero;stroke:none"
       d="m 77.0703,146.657 c 1.032,0 1.8692,-0.837 1.8692,-1.868 0,-1.032 -0.8372,-1.87 -1.8692,-1.87 -1.0328,0 -1.8691,0.838 -1.8691,1.87 0,1.031 0.8363,1.868 1.8691,1.868" /><path
       inkscape:connector-curvature="0"
       id="path210"
       style="fill:#ffffff;fill-opacity:1;fill-rule:nonzero;stroke:none"
       d="m 77.0703,156.839 c 1.032,0 1.8692,-0.837 1.8692,-1.868 0,-1.033 -0.8372,-1.87 -1.8692,-1.87 -1.0328,0 -1.8691,0.837 -1.8691,1.87 0,1.031 0.8363,1.868 1.8691,1.868" /><path
       inkscape:connector-curvature="0"
       id="path212"
       style="fill:#ffffff;fill-opacity:1;fill-rule:nonzero;stroke:none"
       d="m 77.0703,167.021 c 1.032,0 1.8692,-0.837 1.8692,-1.869 0,-1.032 -0.8372,-1.87 -1.8692,-1.87 -1.0328,0 -1.8691,0.838 -1.8691,1.87 0,1.032 0.8363,1.869 1.8691,1.869" /><path
       inkscape:connector-curvature="0"
       id="path214"
       style="fill:#ffffff;fill-opacity:1;fill-rule:nonzero;stroke:none"
       d="m 77.0703,177.202 c 1.032,0 1.8692,-0.837 1.8692,-1.868 0,-1.033 -0.8372,-1.87 -1.8692,-1.87 -1.0328,0 -1.8691,0.837 -1.8691,1.87 0,1.031 0.8363,1.868 1.8691,1.868" /><path
       inkscape:connector-curvature="0"
       id="path216"
       style="fill:#ffffff;fill-opacity:1;fill-rule:nonzero;stroke:none"
       d="m 95.7363,136.476 c 1.0325,0 1.8692,-0.836 1.8692,-1.869 0,-1.032 -0.8367,-1.87 -1.8692,-1.87 -1.032,0 -1.8691,0.838 -1.8691,1.87 0,1.033 0.8371,1.869 1.8691,1.869" /><path
       inkscape:connector-curvature="0"
       id="path218"
       style="fill:#ffffff;fill-opacity:1;fill-rule:nonzero;stroke:none"
       d="m 95.7363,146.657 c 1.0325,0 1.8692,-0.837 1.8692,-1.868 0,-1.032 -0.8367,-1.87 -1.8692,-1.87 -1.032,0 -1.8691,0.838 -1.8691,1.87 0,1.031 0.8371,1.868 1.8691,1.868" /><path
       inkscape:connector-curvature="0"
       id="path220"
       style="fill:#ffffff;fill-opacity:1;fill-rule:nonzero;stroke:none"
       d="m 95.7363,156.839 c 1.0325,0 1.8692,-0.837 1.8692,-1.868 0,-1.033 -0.8367,-1.87 -1.8692,-1.87 -1.032,0 -1.8691,0.837 -1.8691,1.87 0,1.031 0.8371,1.868 1.8691,1.868" /><path
       inkscape:connector-curvature="0"
       id="path222"
       style="fill:#ffffff;fill-opacity:1;fill-rule:nonzero;stroke:none"
       d="m 95.7363,167.021 c 1.0325,0 1.8692,-0.837 1.8692,-1.869 0,-1.032 -0.8367,-1.87 -1.8692,-1.87 -1.032,0 -1.8691,0.838 -1.8691,1.87 0,1.032 0.8371,1.869 1.8691,1.869" /><path
       inkscape:connector-curvature="0"
       id="path224"
       style="fill:#ffffff;fill-opacity:1;fill-rule:nonzero;stroke:none"
       d="m 95.7363,177.202 c 1.0325,0 1.8692,-0.837 1.8692,-1.868 0,-1.033 -0.8367,-1.87 -1.8692,-1.87 -1.032,0 -1.8691,0.837 -1.8691,1.87 0,1.031 0.8371,1.868 1.8691,1.868" /><path
       inkscape:connector-curvature="0"
       id="path256"
       style="fill:#ffffff;fill-opacity:1;fill-rule:nonzero;stroke:none"
       d="m 86.4031,131.385 c 1.0324,0 1.8696,-0.836 1.8696,-1.868 0,-1.033 -0.8372,-1.871 -1.8696,-1.871 -1.032,0 -1.8687,0.838 -1.8687,1.871 0,1.032 0.8367,1.868 1.8687,1.868" /><path
       inkscape:connector-curvature="0"
       id="path258"
       style="fill:#ffffff;fill-opacity:1;fill-rule:nonzero;stroke:none"
       d="m 86.4031,141.566 c 1.0324,0 1.8696,-0.837 1.8696,-1.868 0,-1.032 -0.8372,-1.87 -1.8696,-1.87 -1.032,0 -1.8687,0.838 -1.8687,1.87 0,1.031 0.8367,1.868 1.8687,1.868" /><path
       inkscape:connector-curvature="0"
       id="path260"
       style="fill:#ffffff;fill-opacity:1;fill-rule:nonzero;stroke:none"
       d="m 86.4031,151.748 c 1.0324,0 1.8696,-0.837 1.8696,-1.868 0,-1.032 -0.8372,-1.87 -1.8696,-1.87 -1.032,0 -1.8687,0.838 -1.8687,1.87 0,1.031 0.8367,1.868 1.8687,1.868" /><path
       inkscape:connector-curvature="0"
       id="path262"
       style="fill:#ffffff;fill-opacity:1;fill-rule:nonzero;stroke:none"
       d="m 86.4031,161.93 c 1.0324,0 1.8696,-0.837 1.8696,-1.868 0,-1.033 -0.8372,-1.871 -1.8696,-1.871 -1.032,0 -1.8687,0.838 -1.8687,1.871 0,1.031 0.8367,1.868 1.8687,1.868" /><path
       inkscape:connector-curvature="0"
       id="path264"
       style="fill:#ffffff;fill-opacity:1;fill-rule:nonzero;stroke:none"
       d="m 86.4031,172.111 c 1.0324,0 1.8696,-0.837 1.8696,-1.868 0,-1.032 -0.8372,-1.87 -1.8696,-1.87 -1.032,0 -1.8687,0.838 -1.8687,1.87 0,1.031 0.8367,1.868 1.8687,1.868" /><path
       inkscape:connector-curvature="0"
       id="path266"
       style="fill:#ffffff;fill-opacity:1;fill-rule:nonzero;stroke:none"
       d="m 86.4031,182.293 c 1.0324,0 1.8696,-0.837 1.8696,-1.869 0,-1.031 -0.8372,-1.869 -1.8696,-1.869 -1.032,0 -1.8687,0.838 -1.8687,1.869 0,1.032 0.8367,1.869 1.8687,1.869" /><g
       id="g6595"
       transform="matrix(1.460232,0,0,1.4603387,-768.65876,-246.6844)"><g
         id="g6612"
         transform="matrix(1.995457,0,0,1.9743165,-518.03041,-274.6878)"><path
           inkscape:connector-curvature="0"
           id="path394"
           style="fill:#f14451;fill-opacity:1;fill-rule:nonzero;stroke:none"
           d="m 703.39,421 -20.39,0 0,21.388 C 683,451.604 675.892,458 666.674,458 l -10.681,0 C 646.777,458 639,451.604 639,442.388 L 639,421 618.61,421 C 609.395,421 601,414.222 601,405.005 l 0,-10.68 C 601,385.108 609.395,377 618.61,377 l 20.39,0 0,-19.391 C 639,348.394 646.777,341 655.993,341 l 10.681,0 c 9.218,0 16.326,7.394 16.326,16.609 l 0,19.391 20.39,0 c 9.215,0 15.61,8.108 15.61,17.325 l 0,10.68 C 719,414.222 712.605,421 703.39,421" /><path
           inkscape:connector-curvature="0"
           id="path550"
           style="fill:#ffffff;fill-opacity:1;fill-rule:nonzero;stroke:none"
           d="m 661,405.01 c -10.121,0.007 -18.362,-8.229 -18.364,-18.347 -0.004,-5.283 2.17,-6.345 5.684,-6.347 1.486,0 3.243,0.207 5.104,0.43 2.284,0.27 4.866,0.576 7.562,0.575 2.697,-0.001 5.284,-0.31 7.565,-0.586 1.861,-0.221 3.619,-0.429 5.103,-0.431 3.512,-0.003 5.691,1.057 5.693,6.34 0.004,10.122 -8.226,18.361 -18.347,18.366" /><path
           inkscape:connector-curvature="0"
           id="path552"
           style="fill:#ffffff;fill-opacity:1;fill-rule:nonzero;stroke:none"
           d="m 669.787,421.554 c -2.502,0.002 -4.959,-2.38 -5.84,-5.663 -0.499,-1.862 -0.433,-3.746 0.182,-5.314 0.6,-1.515 1.646,-2.546 2.948,-2.894 0.319,-0.084 0.649,-0.13 0.98,-0.13 2.504,-10e-4 4.96,2.381 5.84,5.666 0.5,1.858 0.435,3.746 -0.184,5.31 -0.596,1.518 -1.643,2.545 -2.946,2.897 -0.318,0.085 -0.649,0.128 -0.979,0.129 l 0,0.466 -10e-4,-0.467" /><path
           inkscape:connector-curvature="0"
           id="path554"
           style="fill:#ffffff;fill-opacity:1;fill-rule:nonzero;stroke:none"
           d="m 648.296,418.542 c -0.617,-1.565 -0.684,-3.451 -0.186,-5.311 0.878,-3.285 3.329,-5.669 5.833,-5.67 0.331,0 0.662,0.043 0.981,0.126 1.302,0.35 2.351,1.377 2.95,2.895 0.618,1.564 0.687,3.45 0.187,5.311 -0.879,3.283 -3.33,5.668 -5.833,5.672 -0.334,-0.002 -0.663,-0.044 -0.981,-0.13 -1.304,-0.349 -2.351,-1.375 -2.951,-2.893" /><path
           inkscape:connector-curvature="0"
           id="path556"
           style="fill:#ffffff;fill-opacity:1;fill-rule:nonzero;stroke:none"
           d="m 643.663,402.332 c 0.171,1.456 -0.2,3.056 -1.038,4.512 -1.252,2.17 -3.311,3.571 -5.246,3.572 -0.627,10e-4 -1.202,-0.148 -1.713,-0.443 -1.009,-0.583 -1.653,-1.677 -1.816,-3.08 -0.166,-1.455 0.203,-3.058 1.04,-4.51 1.253,-2.173 3.311,-3.574 5.248,-3.574 0.624,-0.001 1.2,0.149 1.713,0.442 1.007,0.582 1.652,1.678 1.812,3.081" /><path
           inkscape:connector-curvature="0"
           id="path558"
           style="fill:#ffffff;fill-opacity:1;fill-rule:nonzero;stroke:none"
           d="m 688.151,406.867 c -0.16,1.404 -0.802,2.496 -1.815,3.08 -0.51,0.294 -1.086,0.447 -1.713,0.447 -1.933,10e-4 -3.994,-1.4 -5.249,-3.571 -0.84,-1.45 -1.209,-3.052 -1.043,-4.509 0.161,-1.403 0.804,-2.496 1.814,-3.082 0.51,-0.295 1.085,-0.444 1.71,-0.444 1.936,-0.001 3.997,1.399 5.25,3.568 0.839,1.456 1.211,3.054 1.046,4.511" /><circle
           style="fill:none;fill-rule:evenodd;stroke:#f14451;stroke-width:12.97240639;stroke-linecap:butt;stroke-linejoin:miter;stroke-miterlimit:4;stroke-dasharray:none;stroke-opacity:1"
           id="path4189"
           cx="660.33893"
           cy="-397.96609"
           transform="scale(1,-1)"
           r="85.423729" /><g
           transform="matrix(0.74256172,0,0,-0.8,1.934885,821.31319)"
           style="font-style:normal;font-weight:normal;font-size:40px;line-height:125%;font-family:sans-serif;letter-spacing:0px;word-spacing:0px;fill:#f14451;fill-opacity:1;stroke:#f14451;stroke-width:1.11012816;stroke-linecap:butt;stroke-linejoin:round;stroke-miterlimit:4;stroke-dasharray:none;stroke-opacity:1"
           id="flowRoot5034-9"><path
             d="m 761.37109,664.8987 0,9.25781 q -3.60351,-1.61133 -7.03125,-2.43164 -3.42773,-0.82031 -6.47461,-0.82031 -4.04296,0 -5.97656,1.11328 -1.93359,1.11328 -1.93359,3.45703 0,1.75781 1.28906,2.75391 1.31836,0.96679 4.74609,1.66992 l 4.80469,0.9668 q 7.29492,1.46484 10.3711,4.45312 3.07617,2.98828 3.07617,8.4961 0,7.23632 -4.30664,10.78125 -4.27735,3.51562 -13.09571,3.51562 -4.16015,0 -8.34961,-0.79102 -4.18945,-0.79101 -8.3789,-2.34375 l 0,-9.52148 q 4.18945,2.22656 8.08594,3.36914 3.92578,1.11328 7.55859,1.11328 3.69141,0 5.6543,-1.23047 1.96289,-1.23047 1.96289,-3.51562 0,-2.05078 -1.34766,-3.16406 -1.31836,-1.11329 -5.30273,-1.99219 l -4.36524,-0.9668 q -6.5625,-1.40625 -9.60937,-4.48242 -3.01758,-3.07617 -3.01758,-8.29102 0,-6.5332 4.21875,-10.04882 4.21875,-3.51563 12.1289,-3.51563 3.60352,0 7.41211,0.55664 3.8086,0.52735 7.88086,1.61133 z"
             style="font-style:normal;font-variant:normal;font-weight:bold;font-stretch:normal;font-size:60px;font-family:sans-serif;-inkscape-font-specification:'sans-serif Bold';fill:#f14451;fill-opacity:1;stroke:#f14451;stroke-width:1.11012816;stroke-linejoin:round;stroke-miterlimit:4;stroke-dasharray:none;stroke-opacity:1"
             id="path6703"
             inkscape:connector-curvature="0" /><path
             d="m 794.1543,670.90456 q -5.15625,0 -7.99805,3.80859 -2.8418,3.8086 -2.8418,10.72266 0,6.88476 2.8418,10.69336 2.8418,3.80859 7.99805,3.80859 5.18554,0 8.02734,-3.80859 2.8418,-3.8086 2.8418,-10.69336 0,-6.91406 -2.8418,-10.72266 -2.8418,-3.80859 -8.02734,-3.80859 z m 0,-8.17383 q 10.54687,0 16.52343,6.03516 5.97657,6.03515 5.97657,16.66992 0,10.60547 -5.97657,16.64062 -5.97656,6.03516 -16.52343,6.03516 -10.51758,0 -16.52344,-6.03516 -5.97656,-6.03515 -5.97656,-16.64062 0,-10.63477 5.97656,-16.66992 6.00586,-6.03516 16.52344,-6.03516 z"
             style="font-style:normal;font-variant:normal;font-weight:bold;font-stretch:normal;font-size:60px;font-family:sans-serif;-inkscape-font-specification:'sans-serif Bold';fill:#f14451;fill-opacity:1;stroke:#f14451;stroke-width:1.11012816;stroke-linejoin:round;stroke-miterlimit:4;stroke-dasharray:none;stroke-opacity:1"
             id="path6705"
             inkscape:connector-curvature="0" /><path
             d="m 855.58984,664.8987 0,9.25781 q -3.60351,-1.61133 -7.03125,-2.43164 -3.42773,-0.82031 -6.47461,-0.82031 -4.04296,0 -5.97656,1.11328 -1.93359,1.11328 -1.93359,3.45703 0,1.75781 1.28906,2.75391 1.31836,0.96679 4.74609,1.66992 l 4.80469,0.9668 q 7.29492,1.46484 10.3711,4.45312 3.07617,2.98828 3.07617,8.4961 0,7.23632 -4.30664,10.78125 -4.27735,3.51562 -13.09571,3.51562 -4.16015,0 -8.34961,-0.79102 -4.18945,-0.79101 -8.3789,-2.34375 l 0,-9.52148 q 4.18945,2.22656 8.08594,3.36914 3.92578,1.11328 7.55859,1.11328 3.69141,0 5.6543,-1.23047 1.96289,-1.23047 1.96289,-3.51562 0,-2.05078 -1.34766,-3.16406 -1.31836,-1.11329 -5.30273,-1.99219 l -4.36524,-0.9668 q -6.5625,-1.40625 -9.60937,-4.48242 -3.01758,-3.07617 -3.01758,-8.29102 0,-6.5332 4.21875,-10.04882 4.21875,-3.51563 12.1289,-3.51563 3.60352,0 7.41211,0.55664 3.8086,0.52735 7.88086,1.61133 z"
             style="font-style:normal;font-variant:normal;font-weight:bold;font-stretch:normal;font-size:60px;font-family:sans-serif;-inkscape-font-specification:'sans-serif Bold';fill:#f14451;fill-opacity:1;stroke:#f14451;stroke-width:1.11012816;stroke-linejoin:round;stroke-miterlimit:4;stroke-dasharray:none;stroke-opacity:1"
             id="path6707"
             inkscape:connector-curvature="0" /><path
             d="m 889.25195,663.52175 18.72071,0 q 8.34961,0 12.80273,3.7207 4.48242,3.69141 4.48242,10.54687 0,6.88477 -4.48242,10.60547 -4.45312,3.69141 -12.80273,3.69141 l -7.44141,0 0,15.17578 -11.2793,0 0,-43.74023 z m 11.2793,8.17382 0,12.2168 6.24023,0 q 3.28125,0 5.06836,-1.58203 1.78711,-1.61133 1.78711,-4.54102 0,-2.92968 -1.78711,-4.51171 -1.78711,-1.58204 -5.06836,-1.58204 l -6.24023,0 z"
             style="font-style:normal;font-variant:normal;font-weight:bold;font-stretch:normal;font-size:60px;font-family:sans-serif;-inkscape-font-specification:'sans-serif Bold';fill:#f14451;fill-opacity:1;stroke:#f14451;stroke-width:1.11012816;stroke-linejoin:round;stroke-miterlimit:4;stroke-dasharray:none;stroke-opacity:1"
             id="path6709"
             inkscape:connector-curvature="0" /><path
             d="m 933.19727,663.52175 30.43945,0 0,8.52539 -19.16016,0 0,8.14453 18.01758,0 0,8.52539 -18.01758,0 0,10.01953 19.80469,0 0,8.52539 -31.08398,0 0,-43.74023 z"
             style="font-style:normal;font-variant:normal;font-weight:bold;font-stretch:normal;font-size:60px;font-family:sans-serif;-inkscape-font-specification:'sans-serif Bold';fill:#f14451;fill-opacity:1;stroke:#f14451;stroke-width:1.11012816;stroke-linejoin:round;stroke-miterlimit:4;stroke-dasharray:none;stroke-opacity:1"
             id="path6711"
             inkscape:connector-curvature="0" /><path
             d="m 968.99805,663.52175 40.31245,0 0,8.52539 -14.50191,0 0,35.21484 -11.27929,0 0,-35.21484 -14.53125,0 0,-8.52539 z"
             style="font-style:normal;font-variant:normal;font-weight:bold;font-stretch:normal;font-size:60px;font-family:sans-serif;-inkscape-font-specification:'sans-serif Bold';fill:#f14451;fill-opacity:1;stroke:#f14451;stroke-width:1.11012816;stroke-linejoin:round;stroke-miterlimit:4;stroke-dasharray:none;stroke-opacity:1"
             id="path6713"
             inkscape:connector-curvature="0" /><path
             d="m 1045.5508,664.8987 0,9.25781 q -3.6035,-1.61133 -7.0313,-2.43164 -3.4277,-0.82031 -6.4746,-0.82031 -4.0429,0 -5.9765,1.11328 -1.9336,1.11328 -1.9336,3.45703 0,1.75781 1.289,2.75391 1.3184,0.96679 4.7461,1.66992 l 4.8047,0.9668 q 7.2949,1.46484 10.3711,4.45312 3.0762,2.98828 3.0762,8.4961 0,7.23632 -4.3067,10.78125 -4.2773,3.51562 -13.0957,3.51562 -4.1601,0 -8.3496,-0.79102 -4.1894,-0.79101 -8.3789,-2.34375 l 0,-9.52148 q 4.1895,2.22656 8.086,3.36914 3.9257,1.11328 7.5585,1.11328 3.6915,0 5.6543,-1.23047 1.9629,-1.23047 1.9629,-3.51562 0,-2.05078 -1.3476,-3.16406 -1.3184,-1.11329 -5.3028,-1.99219 l -4.3652,-0.9668 q -6.5625,-1.40625 -9.6094,-4.48242 -3.0175,-3.07617 -3.0175,-8.29102 0,-6.5332 4.2187,-10.04882 4.2188,-3.51563 12.1289,-3.51563 3.6035,0 7.4121,0.55664 3.8086,0.52735 7.8809,1.61133 z"
             style="font-style:normal;font-variant:normal;font-weight:bold;font-stretch:normal;font-size:60px;font-family:sans-serif;-inkscape-font-specification:'sans-serif Bold';fill:#f14451;fill-opacity:1;stroke:#f14451;stroke-width:1.11012816;stroke-linejoin:round;stroke-miterlimit:4;stroke-dasharray:none;stroke-opacity:1"
             id="path6715"
             inkscape:connector-curvature="0" /></g></g><g
         inkscape:groupmode="layer"
         id="layer1"
         inkscape:label="Layer 1" /></g></g></svg>